<?xml version="1.0" standalone="no"?><!DOCTYPE svg PUBLIC "-//W3C//DTD SVG 1.1//EN" "http://www.w3.org/Graphics/SVG/1.1/DTD/svg11.dtd" ><svg xmlns="http://www.w3.org/2000/svg"><metadata></metadata><defs><font id="icomoon" horiz-adv-x="1024"><font-face font-family="icomoon" font-weight="400" font-stretch="normal" units-per-em="1024" panose-1="0 0 0 0 0 0 0 0 0 0" ascent="960" descent="-64" x-height="0" bbox="0 -64 1025 960" underline-thickness="0" underline-position="0" unicode-range="U+e900-fffd" /><missing-glyph horiz-adv-x="1024" d="M0 0 l0 0 l0 0 l0 0 Z" /><glyph glyph-name="" unicode="&#xe900;" d="M487 624 l319 0 l-369 336 l0 -286 q0 -21 14.5 -35.5 q14.5 -14.5 35.5 -14.5 l0 0 l0 0 ZM906 137 l-50 0 l0 51 q0 21 -15 35.5 q-15 14.5 -35 14.5 q-21 0 -36 -14.5 q-15 -14.5 -15 -35.5 l0 -51 l-50 0 q-21 0 -35.5 -14.5 q-14.5 -14.5 -14.5 -35.5 q0 -21 14.5 -35.5 q14.5 -14.5 35.5 -14.5 l50 0 l0 -51 q0 -21 15 -35.5 q15 -14.5 36 -14.5 q20 0 35 14.5 q15 14.5 15 35.5 l0 51 l50 0 q21 0 36 14.5 q15 14.5 15 35.5 q0 21 -15 35.5 q-15 14.5 -36 14.5 l0 0 l0 0 ZM604 87 q0 42 29.5 71.5 q29.5 29.5 71.5 29.5 q0 41 29.5 70.5 q29.5 29.5 71.5 29.5 l0 285 l-319 0 q-42 0 -71.5 29.5 q-29.5 29.5 -29.5 71.5 l0 286 l-151 0 l0 -1 l-117 0 q-21 0 -36 -14.5 q-15 -14.5 -15 -35.5 l0 -872 q0 -21 15 -36 q15 -15 36 -15 l587 0 q-42 0 -71.5 29.5 q-29.5 29.5 -29.5 71.5 l0 0 l0 0 Z" /><glyph glyph-name="" unicode="&#xe901;" d="M512 -13 l0 0 q95 0 179 36.5 q84 36.5 146.5 99 q62.5 62.5 99 146.5 q36.5 84 36.5 179 q0 95 -36.5 179 q-36.5 84 -99 146.5 q-62.5 62.5 -146.5 99 q-84 36.5 -179 36.5 q-95 0 -179 -36.5 q-84 -36.5 -146.5 -99 q-62.5 -62.5 -99 -146.5 q-36.5 -84 -36.5 -179 q0 -95 36.5 -179 q36.5 -84 99 -146.5 q62.5 -62.5 146.5 -99 q84 -36.5 179 -36.5 l0 0 l0 0 ZM543 479 l0 143 q0 13 -9 22 q-9 9 -22 9 q-12 0 -21.5 -9 q-9.5 -9 -9.5 -22 l0 -143 l-143 0 q-13 0 -22 -9 q-9 -9 -9 -22 q0 -12 9 -21.5 q9 -9.5 22 -9.5 l143 0 l0 -143 q0 -13 9 -22 q9 -9 22 -9 q12 0 21.5 9 q9.5 9 9.5 22 l0 143 l143 0 q13 0 22 9 q9 9 9 22 q0 12 -9 21.5 q-9 9.5 -22 9.5 l-143 0 ZM512 -64 q-106 0 -199.5 40 q-93.5 40 -163 109.5 q-69.5 69.5 -109.5 163 q-40 93.5 -40 199.5 q0 106 40 199.5 q40 93.5 109.5 163 q69.5 69.5 163 109.5 q93.5 40 199.5 40 q106 0 199.5 -40 q93.5 -40 163 -109.5 q69.5 -69.5 109.5 -163 q40 -93.5 40 -199.5 q0 -106 -40 -199.5 q-40 -93.5 -109.5 -163 q-69.5 -69.5 -163 -109.5 q-93.5 -40 -199.5 -40 Z" /><glyph glyph-name="" unicode="&#xe902;" d="M73 345 l283 247 l543 -497 l-86 0 l-457 417 l-283 -248 l0 -230 l-60 0 l0 828 l60 0 l0 -517 l0 0 ZM951 862 l0 -60 l-878 0 l0 60 l938 0 l0 -828 l-60 0 l0 828 l0 0 ZM73 94 l0 -60 l878 0 l0 60 l-878 0 l0 0 ZM683 597 q0 -26 18.5 -45 q18.5 -19 45.5 -19 q26 0 45 19 q19 19 19 45 q0 27 -19 45.5 q-19 18.5 -45 18.5 q-27 0 -45.5 -18.5 q-18.5 -18.5 -18.5 -45.5 Z" /><glyph glyph-name="" unicode="&#xe903;" d="M874 611 q-46 66 -104.5 83 q-58.5 17 -83.5 18 q-60 6 -113.5 -20.5 q-53.5 -26.5 -83.5 -26.5 q-30 0 -75 23 q-45 23 -94 22 q-66 -1 -122.5 -35.5 q-56.5 -34.5 -90.5 -92.5 q-34 -59 -40.5 -129 q-6.5 -70 6 -140.5 q12.5 -70.5 39.5 -135 q27 -64.5 60 -111.5 q32 -47 72 -89.5 q40 -42.5 90 -40.5 q49 2 79.5 22 q30.5 20 89.5 20 q59 0 88.5 -21 q29.5 -21 80.5 -20 q53 1 89 40 q36 39 68 86 q38 54 54.5 98.5 q16.5 44.5 16.5 47.5 q0 0 -21.5 10.5 q-21.5 10.5 -47 35 q-25.5 24.5 -47 64 q-21.5 39.5 -21.5 97.5 q-1 97 53 145 q54 48 58 50 l0 0 l0 0 ZM688 960 q-39 -2 -81 -23.5 q-42 -21.5 -70 -54.5 q-25 -28 -42.5 -71 q-17.5 -43 -12.5 -87 q44 -4 85 18 q41 22 68 54 q26 33 42 76 q16 43 11 88 l0 0 l0 0 Z" /><glyph glyph-name="" unicode="&#xe904;" d="M930 663 l94 45 l-111 53 q-2 6 -5 12 q-3 6 -6 12 q-25 46 -62.5 74 q-37.5 28 -81 35 q-43.5 7 -90 -8.5 q-46.5 -15.5 -90.5 -57.5 q-6 -6 -28.5 -28 q-22.5 -22 -58.5 -58.5 q-36 -36.5 -85.5 -86.5 q-49.5 -50 -110.5 -112 q-1 0 -1 -0.5 q0 -0.5 -1 -1.5 q-46 -47 -95.5 -97 q-49.5 -50 -99.5 -101 q-17 -17 -30.5 -31 q-13.5 -14 -33.5 -34 q-15 -15 -18 -18 q-3 -3 -6 -7 q-10 -10 -10 -24 q0 -14 10 -23 q10 -10 24 -10 q14 0 24 10 q3 3 6 6.5 q3 3.5 18 18.5 q20 20 33.5 33.5 q13.5 13.5 30.5 31.5 q50 51 99.5 101 q49.5 50 95.5 97 q1 1 1 1 q0 0 1 1 q60 61 109 110.5 q49 49.5 85 86 q36 36.5 58.5 58.5 q22.5 22 28.5 28 q62 59 123 48 q61 -11 95 -74 q35 -65 11.5 -127.5 q-23.5 -62.5 -107.5 -90.5 q-15 -5 -21 -19.5 q-6 -14.5 1 -28.5 q48 -94 7.5 -146.5 q-40.5 -52.5 -156.5 -75.5 q-48 -10 -97 -13.5 q-49 -3.5 -90 -2.5 q-4 0 -5 0 q-1 0 -1 0 q-8 1 -14.5 -1.5 q-6.5 -2.5 -11.5 -8.5 l-97 -98 q-9 -9 -9 -23 q0 -14 10 -24 q10 -10 24 -10 q14 0 23 10 l97 98 l-25 -10 q1 0 2 0 q1 0 5 0 q45 -1 97.5 2.5 q52.5 3.5 105.5 14.5 q72 14 124 41 q52 27 79 67 q27 40 26.5 92.5 q-0.5 52.5 -34.5 118.5 l-19 -47 q78 26 119 78 q41 52 44 114 l0 0 ZM291 323 q-13 5 -19 17.5 q-6 12.5 -1 25.5 q4 13 17 19 q13 6 26 2 q5 -2 15 -5 q10 -3 24 -6 q28 -7 56 -9.5 q28 -2.5 53 -1.5 q12 1 22 2.5 q10 1.5 20 4.5 q21 6 41 15.5 q20 9.5 39 22.5 q20 13 33.5 25.5 q13.5 12.5 20.5 20.5 q9 11 23 12 q14 1 24 -8 q11 -9 12 -23 q1 -14 -8 -24 q-9 -12 -26 -27.5 q-17 -15.5 -41 -31.5 q-23 -15 -48 -27 q-25 -12 -52 -20 q-13 -4 -27 -6 q-14 -2 -28 -3 q-31 -2 -64 1.5 q-33 3.5 -65 10.5 q-16 4 -27.5 7 q-11.5 3 -19.5 6 l0 0 ZM70 26 q-10 -10 -24 -10 q-14 0 -23 10 q-10 10 -10 24 q0 14 10 24 l187 187 q10 10 24 10 q14 0 24 -10 q10 -9 10 -23 q0 -14 -10 -24 l-188 -188 l0 0 ZM733 656 q-18 0 -30.5 12.5 q-12.5 12.5 -12.5 29.5 q0 18 12.5 30 q12.5 12 30.5 12 q17 0 29.5 -12 q12.5 -12 12.5 -30 q0 -17 -12.5 -29.5 q-12.5 -12.5 -29.5 -12.5 Z" /><glyph glyph-name="" unicode="&#xe905;" d="M110 960 l399 0 q29 0 57.5 -3.5 q28.5 -3.5 56.5 -10.5 q28 -7 53.5 -18 q25.5 -11 47.5 -27 q22 -15 40 -35 q18 -20 31 -45 q14 -24 21 -54 q7 -30 7 -64 q0 -44 -12.5 -79.5 q-12.5 -35.5 -36.5 -64.5 q-25 -28 -57 -48 q-32 -20 -72 -33 l0 -3 q24 -2 46 -9 q22 -7 43 -17 q20 -11 37.5 -24.5 q17.5 -13.5 32.5 -29.5 q14 -16 25.5 -35 q11.5 -19 20.5 -40 q8 -21 12 -44 q4 -23 4 -48 q0 -42 -8 -77 q-8 -35 -25 -62 q-17 -28 -39 -50.5 q-22 -22.5 -49 -39.5 q-27 -17 -58 -29 q-31 -12 -66 -20 q-35 -7 -70.5 -10.5 q-35.5 -3.5 -71.5 -3.5 l-369 0 l0 1024 l0 0 ZM292 543 l166 0 q46 0 80 9 q34 9 57 27 q23 18 34.5 41 q11.5 23 11.5 52 q0 33 -12 58 q-12 25 -35 41 q-24 17 -62 25 q-38 8 -90 8 l-150 0 l0 -261 l0 0 ZM292 92 l168 0 q17 0 35.5 1 q18.5 1 38.5 4 q20 2 38.5 7 q18.5 5 34.5 13 q17 8 30.5 19.5 q13.5 11.5 24.5 25.5 q11 15 16.5 35 q5.5 20 5.5 46 q0 40 -13 68.5 q-13 28.5 -40 43.5 q-26 16 -67 24 q-41 8 -97 8 l-175 0 l0 -295 Z" /><glyph glyph-name="" unicode="&#xe906;" d="M934 732 l-144 0 q-13 0 -21 8.5 q-8 8.5 -8 21.5 l0 12 q0 36 -27 63 q-27 27 -63 27 l-318 0 q-36 0 -63 -27 q-27 -27 -27 -63 l0 -12 q0 -13 -8 -21.5 q-8 -8.5 -21 -8.5 l-144 0 q-36 0 -63 -27 q-27 -27 -27 -63 l0 -491 q0 -36 27 -62.5 q27 -26.5 63 -26.5 l838 0 q36 0 64 26.5 q28 26.5 32 62.5 l0 491 q0 36 -27 63 q-27 27 -63 27 l0 0 l0 0 ZM958 151 q0 -13 -8 -21.5 q-8 -8.5 -22 -8.5 l-838 0 q-14 0 -22 8.5 q-8 8.5 -8 21.5 l0 491 q0 14 8 22 q8 8 22 8 l138 0 q35 0 62 27 q27 27 27 63 l0 12 q0 14 8.5 22 q8.5 8 21.5 8 l318 0 q13 0 21.5 -8 q8.5 -8 8.5 -22 l0 -12 q0 -36 27 -63 q27 -27 62 -27 l144 0 q14 0 22 -8 q8 -8 8 -22 l0 -491 l0 0 ZM509 601 q-76 0 -128 -52 q-52 -52 -52 -128 q0 -76 52 -128 q52 -52 128 -52 q76 0 128 52 q52 52 52 128 q0 76 -52 128 q-52 52 -128 52 l0 0 ZM509 301 q-49 0 -84.5 35 q-35.5 35 -35.5 85 q0 49 35.5 84.5 q35.5 35.5 84.5 35.5 q49 0 84.5 -35.5 q35.5 -35.5 35.5 -84.5 q0 -50 -35.5 -85 q-35.5 -35 -84.5 -35 Z" /><glyph glyph-name="" unicode="&#xe907;" d="M938 632 l-134 -135 q-37 -38 -87 -50 q-50 -12 -98 1 l113 113 q1 1 2 2.5 q1 1.5 3 2.5 l133 135 q28 28 28 68 q0 40 -28 68 q-27 28 -66.5 28 q-39.5 0 -66.5 -28 l-134 -136 l-116 -116 q-12 48 0 97.5 q12 49.5 50 86.5 l134 135 q55 56 134 56 q79 0 135 -56 q54 -58 54 -137 q0 -79 -56 -135 l0 0 l0 0 ZM384 278 l0 0 q-7 -6 -15.5 -10.5 q-8.5 -4.5 -18.5 -4.5 q-21 0 -34.5 14 q-13.5 14 -13.5 34 q0 11 4 20 q4 9 12 16 l319 319 q6 7 15 11.5 q9 4.5 20 4.5 q21 0 35 -14 q14 -14 14 -34 q0 -10 -4 -19 q-4 -9 -11 -15 l0 0 l-322 -322 l0 0 ZM286 382 l-134 -135 q-28 -28 -28 -68 q0 -40 28 -67 q28 -28 67 -28 q39 0 67 28 l133 135 q1 1 1.5 1.5 q0.5 0.5 1.5 1.5 l115 115 q13 -49 0.5 -98 q-12.5 -49 -48.5 -86 l-134 -135 q-56 -56 -135 -56 q-79 0 -134 56 q-56 55 -56 134 q0 79 56 135 l133 135 q38 37 87.5 49.5 q49.5 12.5 96.5 0.5 l-117 -118 l0 0 Z" /><glyph glyph-name="" unicode="&#xe908;" d="M233 215 l0 419 l-93 0 l0 -419 q0 -38 27 -65.5 q27 -27.5 66 -27.5 l791 0 l0 93 l-791 0 l0 0 ZM791 262 l93 0 l0 419 q0 38 -27 65.5 q-27 27.5 -66 27.5 l-791 0 l0 -93 l791 0 l0 -419 ZM233 960 l-93 0 l0 -140 l93 0 l0 140 l0 0 ZM791 -64 l93 0 l0 140 l-93 0 l0 -140 Z" /><glyph glyph-name="" unicode="&#xe909;" d="M110 773 q0 21 14.5 35.5 q14.5 14.5 36.5 14.5 l251 0 l0 50 q0 21 14 35.5 q14 14.5 36 14.5 l100 0 q22 0 36 -14.5 q14 -14.5 14 -35.5 l0 -50 l251 0 q22 0 36.5 -14.5 q14.5 -14.5 14.5 -35.5 l0 -50 l-804 0 l0 50 l0 0 ZM863 624 l0 -615 q0 -21 -14 -35.5 q-14 -14.5 -36 -14.5 l-602 0 q-22 0 -36 14.5 q-14 14.5 -14 35.5 l0 665 l702 0 l0 -50 l0 0 ZM361 524 q0 21 -14 35.5 q-14 14.5 -36 14.5 q-21 0 -35.5 -14.5 q-14.5 -14.5 -14.5 -35.5 l0 -415 q0 -22 14.5 -36 q14.5 -14 35.5 -14 q22 0 36 14 q14 14 14 36 l0 415 l0 0 ZM562 524 q0 21 -14.5 35.5 q-14.5 14.5 -35.5 14.5 q-21 0 -35.5 -14.5 q-14.5 -14.5 -14.5 -35.5 l0 -415 q0 -22 14.5 -36 q14.5 -14 35.5 -14 q21 0 35.5 14 q14.5 14 14.5 36 l0 415 ZM763 524 q0 21 -14.5 35.5 q-14.5 14.5 -35.5 14.5 q-22 0 -36 -14.5 q-14 -14.5 -14 -35.5 l0 -415 q0 -22 14 -36 q14 -14 36 -14 q21 0 35.5 14 q14.5 14 14.5 36 l0 415 Z" /><glyph glyph-name="" unicode="&#xe90a;" d="M628 883 l-56 77 l-147 0 l-57 -77 l-266 0 l0 -79 l792 0 l0 79 l-266 0 l0 0 ZM272 -11 q-47 0 -80 33.5 q-33 33.5 -33 79.5 l0 611 l679 0 l0 -611 q0 -46 -33.5 -79.5 q-33.5 -33.5 -79.5 -33.5 l-453 0 ZM725 71 q13 0 22 9.5 q9 9.5 9 21.5 l0 530 l-516 0 l0 -530 q0 -12 9.5 -21.5 q9.5 -9.5 22.5 -9.5 l453 0 l0 0 Z" /><glyph glyph-name="" unicode="&#xe90b;" d="M512 -38 l0 0 q101 0 189.5 38 q88.5 38 154.5 104 q66 66 104 154.5 q38 88.5 38 189.5 q0 101 -38 189.5 q-38 88.5 -104 154.5 q-66 66 -154.5 104 q-88.5 38 -189.5 38 q-101 0 -189.5 -38 q-88.5 -38 -154.5 -104 q-66 -66 -104 -154.5 q-38 -88.5 -38 -189.5 q0 -101 38 -189.5 q38 -88.5 104 -154.5 q66 -66 154.5 -104 q88.5 -38 189.5 -38 l0 0 ZM512 -64 q-106 0 -199.5 40 q-93.5 40 -163 109.5 q-69.5 69.5 -109.5 163 q-40 93.5 -40 199.5 q0 106 40 199.5 q40 93.5 109.5 163 q69.5 69.5 163 109.5 q93.5 40 199.5 40 q106 0 199.5 -40 q93.5 -40 163 -109.5 q69.5 -69.5 109.5 -163 q40 -93.5 40 -199.5 q0 -106 -40 -199.5 q-40 -93.5 -109.5 -163 q-69.5 -69.5 -163 -109.5 q-93.5 -40 -199.5 -40 ZM741 321 q-1 3 -7 7.5 q-6 4.5 -17 10.5 q-4 1 -8 3.5 q-4 2.5 -10 6.5 q-6 3 -11 5.5 q-5 2.5 -10 5.5 q-5 3 -9 5.5 q-4 2.5 -8 4.5 q-1 1 -3 2 q-2 1 -6 4 q-3 2 -6 4 q-3 2 -5 3 q-3 1 -5 1.5 q-2 0.5 -5 0.5 q-3 0 -7 -2 q-4 -2 -9 -7 q-5 -5 -9.5 -10 q-4.5 -5 -8.5 -10 q-4 -6 -8.5 -11 q-4.5 -5 -8.5 -10 q-5 -4 -8.5 -6.5 q-3.5 -2.5 -6.5 -2.5 q-2 0 -3.5 0.5 q-1.5 0.5 -4.5 1.5 q-2 0 -3.5 1 q-1.5 1 -2.5 1 q-2 1 -3.5 2 q-1.5 1 -4.5 3 q-3 2 -4.5 3 q-1.5 1 -1.5 1 q-23 12 -42 26.5 q-19 14.5 -35 30.5 q-16 16 -30.5 35 q-14.5 19 -26.5 42 q0 0 -1 1.5 q-1 1.5 -3 4.5 q-2 3 -3 4.5 q-1 1.5 -2 3.5 q0 1 -1 2.5 q-1 1.5 -1 3.5 q-1 3 -1.5 4.5 q-0.5 1.5 -0.5 3.5 q0 3 2.5 6.5 q2.5 3.5 6.5 8.5 q5 4 10 8.5 q5 4.5 11 8.5 q5 4 10 8.5 q5 4.5 10 9.5 q5 5 7 9 q2 4 2 7 q0 3 -0.5 5 q-0.5 2 -1.5 5 q-1 2 -3 5 q-2 3 -4 6 q-3 4 -4 6 q-1 2 -2 3 q-2 4 -4.5 8 q-2.5 4 -5.5 9 q-3 5 -5.5 10 q-2.5 5 -5.5 11 q-4 6 -6.5 10 q-2.5 4 -3.5 8 q-6 11 -10.5 17 q-4.5 6 -7.5 7 q-1 1 -2.5 1 q-1.5 0 -4.5 0 q-4 0 -9.5 -0.5 q-5.5 -0.5 -13.5 -2.5 q-7 -2 -12.5 -3.5 q-5.5 -1.5 -9.5 -3.5 q-8 -3 -17 -13 q-9 -10 -18 -27 q-8 -15 -12 -30 q-4 -15 -4 -31 q0 -4 0 -8.5 q0 -4.5 1 -8.5 q0 -4 1 -8.5 q1 -4.5 3 -10.5 q1 -5 2.5 -9 q1.5 -4 2.5 -6 q0 -3 2 -7.5 q2 -4.5 4 -10.5 q3 -7 4.5 -11 q1.5 -4 1.5 -5 q6 -16 12.5 -30.5 q6.5 -14.5 14.5 -27.5 q13 -21 31 -42.5 q18 -21.5 40 -43.5 q22 -22 43.5 -40 q21.5 -18 42.5 -31 q13 -8 27.5 -14.5 q14.5 -6.5 30.5 -12.5 q1 0 5 -1.5 q4 -1.5 11 -4.5 q6 -2 10.5 -4 q4.5 -2 7.5 -2 q2 -1 6 -2.5 q4 -1.5 9 -2.5 q6 -2 10.5 -3 q4.5 -1 8.5 -1 q4 -1 8.5 -1 q4.5 0 8.5 0 q16 0 31 4 q15 4 30 12 q17 9 27 18 q10 9 13 17 q2 4 3.5 9.5 q1.5 5.5 3.5 12.5 q2 7 2.5 13 q0.5 6 0.5 10 q0 3 0 4.5 q0 1.5 -1 2.5 l0 0 Z" /><glyph glyph-name="" unicode="&#xe90c;" d="M129 849 l802 0 l0 -67 l-802 0 l0 67 l0 0 ZM40 493 l134 0 l0 -67 l-134 0 l0 67 l0 0 ZM329 493 l134 0 l0 -67 l-134 0 l0 67 l0 0 ZM597 493 l133 0 l0 -67 l-133 0 l0 67 l0 0 ZM886 493 l134 0 l0 -67 l-134 0 l0 67 l0 0 ZM129 136 l802 0 l0 -66 l-802 0 l0 66 l0 0 Z" /><glyph glyph-name="" unicode="&#xe90d;" d="M93 709 q33 0 56 23 q23 23 23 56 q0 33 -23 56 q-23 23 -56 23 q-33 0 -56 -23 q-23 -23 -23 -56 q0 -33 23 -56 q23 -23 56 -23 ZM93 383 q33 0 56 23 q23 23 23 56 q0 33 -23 56 q-23 23 -56 23 q-33 0 -56 -23 q-23 -23 -23 -56 q0 -33 23 -56 q23 -23 56 -23 ZM93 57 q33 0 56 23 q23 23 23 56 q0 33 -23 56 q-23 23 -56 23 q-33 0 -56 -23 q-23 -23 -23 -56 q0 -33 23 -56 q23 -23 56 -23 ZM372 820 l652 0 l0 -69 l-652 0 l0 69 l0 0 ZM372 495 l652 0 l0 -70 l-652 0 l0 70 l0 0 ZM372 169 l652 0 l0 -70 l-652 0 l0 70 l0 0 Z" /><glyph glyph-name="" unicode="&#xe90e;" d="M1022 17 q0 -20 -13.5 -33.5 q-13.5 -13.5 -34.5 -13.5 l-926 0 q-20 0 -34 13.5 q-14 13.5 -14 33.5 l0 895 q0 20 14 34 q14 14 34 14 l144 0 l0 -383 q0 -40 27 -67.5 q27 -27.5 67 -28.5 l420 0 q38 1 66 28.5 q28 27.5 28 67.5 l0 383 l32 0 q10 0 19 -3.5 q9 -3.5 15 -10.5 l0 0 l144 -144 q6 -6 10 -15 q4 -9 4 -19 l0 -751 l-2 0 l0 0 ZM751 577 q0 -21 -14 -34.5 q-14 -13.5 -34 -13.5 l-415 0 q-21 0 -34.5 13.5 q-13.5 13.5 -13.5 34.5 l0 383 l511 0 l0 -383 ZM655 896 l-144 0 l0 -303 l144 0 l0 303 Z" /><glyph glyph-name="" unicode="&#xe90f;" d="M1008 875 l-70 70 q-15 15 -35.5 15 q-20.5 0 -35.5 -15 l-106 -106 l141 -141 l106 106 q15 15 15 35.5 q0 20.5 -15 35.5 l0 0 ZM872 37 l-771 0 l0 771 l559 0 l100 100 l-710 0 q-21 0 -35.5 -14.5 q-14.5 -14.5 -14.5 -35.5 l0 -872 q0 -21 14.5 -35.5 q14.5 -14.5 35.5 -14.5 l872 0 q21 0 35.5 14.5 q14.5 14.5 14.5 35.5 l0 707 l-100 -100 l0 -556 l0 0 ZM867 663 l-142 141 l-424 -424 l141 -141 l425 424 l0 0 ZM218 157 l189 47 l-142 141 l-47 -188 l0 0 Z" /><glyph glyph-name="" unicode="&#xe910;" d="M13 737 l69 0 l0 -249 l314 0 l0 249 l69 0 l0 -587 l-69 0 l0 274 l-314 0 l0 -274 l-69 0 l0 587 l0 0 ZM635 230 l221 215 q10 10 19 19 q9 9 17 18 q8 8 14.5 16.5 q6.5 8.5 11.5 16.5 q6 8 9.5 16.5 q3.5 8.5 6.5 17.5 q2 8 3.5 18 q1.5 10 1.5 21 q0 11 -2 21.5 q-2 10.5 -7 19.5 q-4 9 -9.5 17 q-5.5 8 -12.5 14 q-8 7 -16.5 11.5 q-8.5 4.5 -17.5 8.5 q-10 3 -20.5 5 q-10.5 2 -21.5 2 q-23 0 -41 -6.5 q-18 -6.5 -33 -19.5 q-14 -13 -23.5 -29.5 q-9.5 -16.5 -13.5 -38.5 l-76 7 q3 18 8.5 34 q5.5 16 13.5 29 q8 14 18.5 25.5 q10.5 11.5 22.5 20.5 q12 10 26 16.5 q14 6.5 29 11.5 q15 5 32 7.5 q17 2.5 34 2.5 q19 0 36 -3 q17 -3 33 -8 q16 -5 30.5 -12.5 q14.5 -7.5 26.5 -17.5 q12 -10 22 -22.5 q10 -12.5 17 -27.5 q7 -15 10.5 -32 q3.5 -17 3.5 -36 q0 -18 -2 -33.5 q-2 -15.5 -7 -29.5 q-5 -14 -11.5 -27 q-6.5 -13 -14.5 -25 q-8 -12 -17 -23 q-9 -11 -19 -22 q-10 -10 -21 -20.5 q-11 -10.5 -22 -21.5 l-181 -170 l0 -1 l299 0 l0 -65 l-377 0 l0 80 l0 0 Z" /><glyph glyph-name="" unicode="&#xe911;" d="M21 737 l69 0 l0 -245 l308 0 l0 245 l68 0 l0 -577 l-68 0 l0 269 l-308 0 l0 -269 l-69 0 l0 577 l0 0 ZM759 492 l21 0 q10 0 21 1 q11 1 23 3 q12 1 22.5 4.5 q10.5 3.5 19.5 9.5 q10 5 18 12.5 q8 7.5 14 17.5 q7 10 10 23 q3 13 3 30 q0 22 -7 39 q-7 17 -20 30 q-14 13 -32 19.5 q-18 6.5 -40 6.5 q-18 0 -34 -4 q-16 -4 -29 -12 q-14 -8 -24.5 -20 q-10.5 -12 -18.5 -28 l-66 25 q11 24 27.5 42.5 q16.5 18.5 39.5 30.5 q22 12 47.5 18.5 q25.5 6.5 52.5 6.5 q18 0 34 -2.5 q16 -2.5 32 -7.5 q16 -5 29.5 -12 q13.5 -7 25.5 -17 q12 -9 21.5 -20.5 q9.5 -11.5 15.5 -25.5 q7 -15 10.5 -31 q3.5 -16 3.5 -35 q0 -23 -6.5 -43.5 q-6.5 -20.5 -20.5 -38.5 q-14 -18 -31.5 -30.5 q-17.5 -12.5 -39.5 -19.5 l0 -2 q14 -2 26 -6.5 q12 -4.5 23 -11.5 q11 -6 20 -14 q9 -8 17 -18 q8 -9 14 -20 q6 -11 10 -23 q4 -13 6 -25.5 q2 -12.5 2 -26.5 q0 -21 -4 -39 q-4 -18 -12 -33 q-7 -16 -17.5 -29 q-10.5 -13 -23.5 -23 q-13 -11 -28.5 -19 q-15.5 -8 -32.5 -13 q-17 -6 -35.5 -8.5 q-18.5 -2.5 -37.5 -2.5 q-33 0 -61.5 7 q-28.5 7 -53.5 22 q-24 14 -42 37 q-18 23 -29 56 l70 22 q7 -23 17.5 -39.5 q10.5 -16.5 23.5 -26.5 q14 -9 32.5 -14 q18.5 -5 42.5 -5 q12 0 23.5 2 q11.5 2 22.5 6 q10 4 19.5 10 q9.5 6 17.5 13 q8 8 14 17 q6 9 11 19 q5 10 7.5 21.5 q2.5 11.5 2.5 24.5 q0 16 -3.5 29.5 q-3.5 13.5 -9.5 23.5 q-6 11 -14.5 19.5 q-8.5 8.5 -18.5 15.5 q-11 6 -22.5 10.5 q-11.5 4.5 -24.5 7.5 q-13 3 -26.5 4.5 q-13.5 1.5 -26.5 1.5 l-21 0 l0 58 l0 0 Z" /><glyph glyph-name="" unicode="&#xe912;" d="M2 570 l516 -537 l507 535 l-275 286 l-237 -248 l-240 250 l-271 -286 Z" /><glyph glyph-name="" unicode="&#xe913;" d="M938 893 l-890 0 q-20 0 -34 -14 q-14 -14 -14 -33 l0 -637 q0 -19 14 -33 q14 -14 34 -14 l302 0 l0 -80 l-64 -63 l0 -16 l414 0 l0 16 l-64 63 l0 80 l302 0 q20 0 34 14 q14 14 14 33 l0 637 q0 19 -14 33 q-14 14 -34 14 l0 0 l0 0 ZM922 289 l-858 0 l0 541 l858 0 l0 -541 Z" /><glyph glyph-name="" unicode="&#xe914;" d="M762 960 l-503 0 q-23 0 -38.5 -15.5 q-15.5 -15.5 -15.5 -37.5 l0 -918 q0 -22 15.5 -37.5 q15.5 -15.5 38.5 -15.5 l503 0 q23 0 38.5 15.5 q15.5 15.5 15.5 37.5 l0 918 q0 22 -15.5 37.5 q-15.5 15.5 -38.5 15.5 l0 0 ZM510 -11 q-14 0 -24.5 10.5 q-10.5 10.5 -10.5 24.5 q0 15 10.5 25.5 q10.5 10.5 24.5 10.5 q15 0 25.5 -10.5 q10.5 -10.5 10.5 -25.5 q0 -14 -10.5 -24.5 q-10.5 -10.5 -25.5 -10.5 l0 0 l0 0 ZM742 113 l-460 0 l0 741 l460 0 l0 -741 Z" /><glyph glyph-name="" unicode="&#xe915;" d="M558 49 q-16 -15 -37 -15 q-21 0 -35 15 q-14 16 -14.5 37 q-0.5 21 14.5 35 l337 337 q30 30 45 68 q15 38 15 77 q0 39 -15 77 q-15 38 -45 68 q-30 30 -67.5 45 q-37.5 15 -77 15 q-39.5 0 -77 -15 q-37.5 -15 -67.5 -45 l-397 -397 q-35 -35 -35 -84.5 q0 -49.5 35 -84.5 q34 -34 84 -34 q50 0 84 34 l373 373 q11 11 11 24.5 q0 13.5 -11 23.5 q-10 10 -23.5 10 q-13.5 0 -23.5 -10 l-314 -313 q-15 -16 -36 -16 q-21 0 -35 16 q-16 15 -16 36 q0 21 16 35 l313 314 q40 39 96.5 39 q56.5 0 96.5 -39 q39 -40 39 -96.5 q0 -56.5 -39 -96.5 l-373 -373 q-33 -33 -74 -49 q-41 -16 -83.5 -16 q-42.5 0 -83 16 q-40.5 16 -73.5 49 q-32 33 -48.5 73.5 q-16.5 40.5 -16.5 83 q0 42.5 16.5 83.5 q16.5 41 48.5 73 l397 397 q45 45 101.5 67.5 q56.5 22.5 115.5 22.5 q59 0 115.5 -22.5 q56.5 -22.5 102.5 -67.5 q44 -44 66.5 -100.5 q22.5 -56.5 22.5 -115.5 q0 -59 -23 -115.5 q-23 -56.5 -68 -100.5 l-337 -338 l0 0 Z" /><glyph glyph-name="" unicode="&#xe916;" d="M676 484 l303 293 q7 -6 10.5 -14.5 q3.5 -8.5 3.5 -18.5 l0 -589 q0 -10 -3.5 -17.5 q-3.5 -7.5 -8.5 -13.5 l-305 360 l0 0 ZM16 777 q5 6 13 9 q8 3 18 3 l899 0 q10 0 18 -3 q8 -3 13 -9 l-481 -376 l-480 376 l0 0 ZM12 122 q-5 6 -8.5 14 q-3.5 8 -3.5 17 l0 590 q0 9 3.5 18 q3.5 9 10.5 14 l303 -293 l-305 -360 l0 0 ZM496 308 l126 123 l355 -312 q-5 -6 -14 -9 q-9 -3 -18 -3 l-900 0 q-9 0 -17.5 3 q-8.5 3 -15.5 9 l356 312 l128 -123 l0 0 Z" /><glyph glyph-name="" unicode="&#xe917;" d="M505 571 q-50 0 -85.5 -36 q-35.5 -36 -35.5 -87 q0 -51 35.5 -87 q35.5 -36 85.5 -36 q49 0 84.5 36 q35.5 36 35.5 87 q0 51 -35.5 87 q-35.5 36 -84.5 36 l0 0 l0 0 ZM505 714 q49 0 84.5 36 q35.5 36 35.5 87 q0 51 -35.5 87 q-35.5 36 -84.5 36 q-50 0 -85.5 -36 q-35.5 -36 -35.5 -87 q0 -51 35.5 -87 q35.5 -36 85.5 -36 l0 0 l0 0 ZM505 182 q-50 0 -85.5 -36 q-35.5 -36 -35.5 -87 q0 -51 35.5 -87 q35.5 -36 85.5 -36 q49 0 84.5 36 q35.5 36 35.5 87 q0 51 -35.5 87 q-35.5 36 -84.5 36 l0 0 l0 0 Z" /><glyph glyph-name="" unicode="&#xe918;" d="M51 759 l973 0 l0 91 l-1019 0 l0 -91 l46 0 ZM46 530 l759 0 l0 91 l-805 0 l0 -91 l46 0 ZM51 301 l973 0 l0 91 l-1019 0 l0 -91 l46 0 ZM46 72 l759 0 l0 92 l-805 0 l0 -92 l46 0 l0 0 Z" /><glyph glyph-name="" unicode="&#xe919;" d="M358 829 l623 0 l0 -66 l-623 0 l0 66 ZM358 518 l623 0 l0 -67 l-623 0 l0 67 ZM358 206 l623 0 l0 -67 l-623 0 l0 67 ZM72 674 l27 0 l0 219 l-27 0 l-59 -42 l0 -29 l56 41 l3 0 l0 -189 ZM18 520 l0 0 l26 0 l0 0 q0 19 12 31 q12 12 31 12 q18 0 30.5 -11.5 q12.5 -11.5 12.5 -27.5 q0 -13 -7 -25 q-7 -12 -28 -35 l-76 -83 l0 -19 l142 0 l0 25 l-103 0 l0 2 l53 57 q27 29 37 45.5 q10 16.5 10 33.5 q0 26 -20 44 q-20 18 -50 18 q-31 0 -50.5 -19 q-19.5 -19 -19.5 -48 l0 0 ZM64 152 l28 0 q23 0 36.5 -11.5 q13.5 -11.5 13.5 -30.5 q0 -18 -13.5 -29.5 q-13.5 -11.5 -35.5 -11.5 q-21 0 -35 10.5 q-14 10.5 -16 28.5 l-26 0 q1 -29 22.5 -46 q21.5 -17 54.5 -17 q33 0 55.5 18.5 q22.5 18.5 22.5 46.5 q0 22 -13 36.5 q-13 14.5 -35 17.5 l0 2 q18 5 28 18.5 q10 13.5 10 33.5 q0 24 -20 40.5 q-20 16.5 -49 16.5 q-31 0 -50.5 -16.5 q-19.5 -16.5 -21.5 -44.5 l27 0 q2 17 13.5 27 q11.5 10 30.5 10 q19 0 30.5 -10 q11.5 -10 11.5 -27 q0 -17 -12 -28 q-12 -11 -30 -11 l-27 0 l0 -23 l0 0 Z" /><glyph glyph-name="" unicode="&#xe91a;" d="M490 552 q-38 0 -65 -27.5 q-27 -27.5 -27 -66.5 q0 -39 27 -66.5 q27 -27.5 65 -27.5 q38 0 65 27.5 q27 27.5 27 66.5 q0 39 -27 66.5 q-27 27.5 -65 27.5 l0 0 ZM981 452 q0 1 0 1 q0 0 0 1 q0 0 0 0 q0 0 0 0 q0 1 -0.5 1 q-0.5 0 -0.5 0 q0 0 0 0.5 q0 0.5 0 0.5 q0 0 0 0 q0 0 0 0 q-1 6 -3.5 11.5 q-2.5 5.5 -6.5 9.5 q-23 30 -50.5 56 q-27.5 26 -55.5 49 q-31 26 -63.5 49 q-32.5 23 -67.5 42 q-35 19 -71.5 33.5 q-36.5 14.5 -75.5 23.5 q-45 10 -89.5 10.5 q-44.5 0.5 -89.5 -7.5 q-41 -8 -80 -23 q-39 -15 -76 -35 q-57 -31 -109.5 -72 q-52.5 -41 -98.5 -89 q-8 -9 -16.5 -18 q-8.5 -9 -16.5 -19 q-10 -12 -10 -26.5 q0 -14.5 10 -27.5 q24 -29 51 -55 q27 -26 56 -49 q30 -26 63 -49 q33 -23 67.5 -42 q34.5 -19 71.5 -34 q37 -15 75 -23 q45 -10 90 -10.5 q45 -0.5 89 7.5 q41 8 80 23 q39 15 76 35 q58 31 110 72 q52 41 98 89 q9 9 17 18 q8 9 16 18 q4 5 6.5 10.5 q2.5 5.5 3.5 11.5 q0 0 0 0 q0 0 0 0 q0 0 0 0 q0 0 0 1 q1 0 1 0 q0 0 0 1 q0 0 0 0 q0 0 0 0 q0 1 0 1 q0 0 0 1 q0 0 0 0.5 q0 0.5 0 0.5 q0 1 0 1.5 q0 0.5 0 0.5 l0 0 l0 0 ZM490 270 q-76 0 -129.5 55 q-53.5 55 -53.5 133 q0 78 53.5 133 q53.5 55 129.5 55 q77 0 130.5 -55 q53.5 -55 53.5 -133 q0 -78 -53.5 -133 q-53.5 -55 -130.5 -55 l0 0 l0 0 Z" /><glyph glyph-name="" unicode="&#xe91b;" d="M906 167 q-10 0 -19 4 q-9 4 -15 11 l-32 31 l0 -227 q0 -22 -14 -36 q-14 -14 -35 -14 q-21 0 -35.5 14 q-14.5 14 -14.5 36 l0 227 l-31 -31 q-6 -6 -15.5 -10.5 q-9.5 -4.5 -19.5 -4.5 q-21 0 -35 14.5 q-14 14.5 -14 35.5 q0 10 3.5 19 q3.5 9 10.5 15 l116 116 q6 6 15.5 10.5 q9.5 4.5 19.5 4.5 q10 0 19 -3.5 q9 -3.5 15 -11.5 l116 -116 q6 -6 10.5 -15 q4.5 -9 4.5 -19 q0 -21 -14.5 -35.5 q-14.5 -14.5 -35.5 -14.5 l0 0 l0 0 ZM606 286 q-14 -13 -22 -31 q-8 -18 -8 -38 q0 -41 29 -70 q29 -29 70 -29 q4 0 8.5 0 q4.5 0 8.5 1 l0 -117 l-578 0 q-22 0 -36 14.5 q-14 14.5 -14 35.5 l0 858 q0 22 14 36 q14 14 36 14 l264 0 l0 -281 q0 -41 29 -70 q29 -29 70 -29 l314 0 l0 -149 q-21 0 -39 -8 q-18 -8 -31 -21 l-115 -116 l0 0 ZM477 630 q-21 0 -35.5 14 q-14.5 14 -14.5 35 l0 281 l364 -330 l-314 0 l0 0 Z" /><glyph glyph-name="" unicode="&#xe91c;" d="M1024 849 q-25 -24 -74.5 -82 q-49.5 -58 -99 -126.5 q-49.5 -68.5 -86.5 -136 q-37 -67.5 -37 -109.5 q40 35 73 39 q33 4 33 4 q35 0 64.5 -15.5 q29.5 -15.5 54.5 -45.5 q24 -30 36.5 -68 q12.5 -38 12.5 -84 q0 -49 -14 -89 q-14 -40 -41 -72 q-28 -32 -63 -47.5 q-35 -15.5 -78 -15.5 q-50 0 -89.5 21 q-39.5 21 -69.5 63 q-31 42 -46 98.5 q-15 56.5 -15 128.5 q0 66 22 138.5 q22 72.5 66 150.5 q21 39 48.5 79 q27.5 40 60 81 q32.5 41 70.5 82.5 q38 41.5 81 84.5 l91 -79 l0 0 ZM439 849 q-25 -24 -74.5 -82 q-49.5 -58 -99 -126.5 q-49.5 -68.5 -86.5 -136 q-37 -67.5 -37 -109.5 q40 35 73 39 q33 4 33 4 q35 0 64.5 -15.5 q29.5 -15.5 54.5 -45.5 q24 -30 36.5 -68 q12.5 -38 12.5 -84 q0 -49 -14 -89 q-14 -40 -41 -72 q-28 -32 -63 -47.5 q-35 -15.5 -79 -15.5 q-49 0 -88.5 21 q-39.5 21 -69.5 63 q-31 42 -46 98.5 q-15 56.5 -15 128.5 q0 66 22 138.5 q22 72.5 66 150.5 q21 39 48.5 79 q27.5 40 60 81 q32.5 41 70.5 82.5 q38 41.5 81 84.5 l91 -79 l0 0 Z" /><glyph glyph-name="" unicode="&#xe91d;" d="M260 391 l0 -69 q-57 0 -101 17.5 q-44 17.5 -74 48.5 q-30 31 -44 72.5 q-14 41.5 -10 89.5 q4 46 23 85.5 q19 39.5 51 68.5 q32 29 74 44 q42 15 91 12 l-35 -26 q16 68 47.5 115 q31.5 47 73 74 q41.5 27 92 34.5 q50.5 7.5 106.5 -5.5 q47 -11 89 -34 q42 -23 72.5 -53 q30.5 -30 45 -64 q14.5 -34 7.5 -67 l-34 41 q61 0 109 -17.5 q48 -17.5 81.5 -48.5 q33.5 -31 51.5 -74 q18 -43 18 -94 q0 -47 -15.5 -89.5 q-15.5 -42.5 -43 -74.5 q-27.5 -32 -65.5 -51 q-38 -19 -83 -19 l0 68 q59 0 99 49 q40 49 39 117 q0 73 -49 119.5 q-49 46.5 -142 46.5 l-43 0 l10 42 q7 31 -42.5 75.5 q-49.5 44.5 -120.5 60.5 q-84 20 -147 -20 q-63 -40 -90 -147 l-7 -28 l-28 2 q-69 4 -115 -39 q-46 -43 -52 -109 q-5 -66 36.5 -109.5 q41.5 -43.5 124.5 -43.5 l0 0 ZM366 506 q3 14 15 22 q12 8 26 5 q13 -3 21 -15 q8 -12 5 -26 l-43 -201 q-3 -14 -15 -21.5 q-12 -7.5 -26 -4.5 q-14 3 -21.5 15 q-7.5 12 -4.5 26 l43 200 l0 0 ZM294 172 q3 14 15 21.5 q12 7.5 26 4.5 q14 -3 21.5 -15 q7.5 -12 4.5 -26 l-3 -11 q-2 -14 -14 -22 q-12 -8 -26 -5 q-14 3 -21.5 15 q-7.5 12 -4.5 26 l2 12 ZM493 374 q3 14 15 21.5 q12 7.5 26 4.5 q14 -3 21.5 -14.5 q7.5 -11.5 4.5 -25.5 l-41 -201 q-3 -14 -15 -22 q-12 -8 -25 -5 q-14 3 -22 15 q-8 12 -5 25 l41 202 ZM424 38 q3 14 15 22 q12 8 26 5 q14 -3 21.5 -15 q7.5 -12 4.5 -25 l-1 -9 q-3 -14 -15 -22 q-12 -8 -26 -5 q-14 3 -21.5 15 q-7.5 12 -4.5 26 l1 8 ZM665 526 q3 14 15 21.5 q12 7.5 26 4.5 q14 -3 21.5 -15 q7.5 -12 4.5 -25 l-43 -201 q-3 -14 -15 -21.5 q-12 -7.5 -26 -4.5 q-14 3 -21.5 14.5 q-7.5 11.5 -4.5 25.5 l43 201 l0 0 ZM593 192 q3 13 15 21 q12 8 25 5 q14 -3 22 -15 q8 -12 5 -26 l-2 -7 q-3 -14 -15 -21.5 q-12 -7.5 -26 -4.5 q-14 3 -21.5 15 q-7.5 12 -4.5 26 l2 7 Z" /><glyph glyph-name="" unicode="&#xe91e;" d="M512 -38 l0 0 q101 0 189.5 38 q88.5 38 154.5 104 q66 66 104 154.5 q38 88.5 38 189.5 q0 101 -38 189.5 q-38 88.5 -104 154.5 q-66 66 -154.5 104 q-88.5 38 -189.5 38 q-101 0 -189.5 -38 q-88.5 -38 -154.5 -104 q-66 -66 -104 -154.5 q-38 -88.5 -38 -189.5 q0 -101 38 -189.5 q38 -88.5 104 -154.5 q66 -66 154.5 -104 q88.5 -38 189.5 -38 l0 0 ZM531 667 q-71 6 -132.5 -35 q-61.5 -41 -84.5 -113 q-14 -42 -10.5 -84 q3.5 -42 21.5 -78 q18 -36 49 -64 q31 -28 72 -41 q72 -24 142.5 5.5 q70.5 29.5 106.5 97.5 q5 9 2 19.5 q-3 10.5 -12 15.5 q-10 5 -20 1.5 q-10 -3.5 -15 -12.5 q-27 -51 -80.5 -73.5 q-53.5 -22.5 -107.5 -4.5 q-62 20 -91 79 q-29 59 -9 123 q19 58 68.5 89 q49.5 31 104.5 23 q-13 -14 -27 -27 q-14 -13 -14 -13 q-6 -7 -6 -16 q0 -9 6 -16 q7 -6 16 -6 q9 0 16 6 l81 80 q6 7 6 16.5 q0 9.5 -6 15.5 l-82 79 q-6 6 -15 6 q-9 0 -16 -7 q-6 -6 -6 -15.5 q0 -9.5 7 -15.5 q0 0 11.5 -11 q11.5 -11 24.5 -24 l0 0 ZM512 -64 q-106 0 -199.5 40 q-93.5 40 -163 109.5 q-69.5 69.5 -109.5 163 q-40 93.5 -40 199.5 q0 106 40 199.5 q40 93.5 109.5 163 q69.5 69.5 163 109.5 q93.5 40 199.5 40 q106 0 199.5 -40 q93.5 -40 163 -109.5 q69.5 -69.5 109.5 -163 q40 -93.5 40 -199.5 q0 -106 -40 -199.5 q-40 -93.5 -109.5 -163 q-69.5 -69.5 -163 -109.5 q-93.5 -40 -199.5 -40 Z" /><glyph glyph-name="" unicode="&#xe91f;" d="M290 278 q-12 0 -21 8.5 q-9 8.5 -9 20.5 l0 500 q0 12 8.5 20.5 q8.5 8.5 21.5 8.5 l617 0 q12 0 20.5 -8.5 q8.5 -8.5 8.5 -20.5 l0 -500 q0 -12 -8.5 -20.5 q-8.5 -8.5 -20.5 -8.5 l-617 0 l0 0 ZM290 190 l617 0 q48 0 82.5 34 q34.5 34 34.5 83 l0 500 q0 48 -34.5 82 q-34.5 34 -82.5 34 l-617 0 q-49 0 -83 -34 q-34 -34 -34 -82 l0 -500 q0 -48 34 -82.5 q34 -34.5 83 -34.5 l0 0 ZM0 655 l0 -512 q0 -48 34 -82 q34 -34 82 -34 l731 0 l0 87 l-731 0 q-12 0 -20 8.5 q-8 8.5 -8 20.5 l0 512 l-88 0 Z" /><glyph glyph-name="" unicode="&#xe920;" d="M512 -38 l0 0 q101 0 189.5 38 q88.5 38 154.5 104 q66 66 104 154.5 q38 88.5 38 189.5 q0 101 -38 189.5 q-38 88.5 -104 154.5 q-66 66 -154.5 104 q-88.5 38 -189.5 38 q-101 0 -189.5 -38 q-88.5 -38 -154.5 -104 q-66 -66 -104 -154.5 q-38 -88.5 -38 -189.5 q0 -101 38 -189.5 q38 -88.5 104 -154.5 q66 -66 154.5 -104 q88.5 -38 189.5 -38 l0 0 ZM512 -64 q-106 0 -199.5 40 q-93.5 40 -163 109.5 q-69.5 69.5 -109.5 163 q-40 93.5 -40 199.5 q0 106 40 199.5 q40 93.5 109.5 163 q69.5 69.5 163 109.5 q93.5 40 199.5 40 q106 0 199.5 -40 q93.5 -40 163 -109.5 q69.5 -69.5 109.5 -163 q40 -93.5 40 -199.5 q0 -106 -40 -199.5 q-40 -93.5 -109.5 -163 q-69.5 -69.5 -163 -109.5 q-93.5 -40 -199.5 -40 ZM733 542 l-253 -252 q-4 -4 -10 -7 q-6 -3 -13 -3 q-6 0 -12.5 2.5 q-6.5 2.5 -10.5 7.5 l-143 142 q-4 4 -6.5 10.5 q-2.5 6.5 -2.5 12.5 q0 14 9.5 23.5 q9.5 9.5 23.5 9.5 q6 0 12 -2.5 q6 -2.5 11 -7.5 l119 -119 l229 229 q5 4 11 7 q6 3 12 3 q14 0 23.5 -9.5 q9.5 -9.5 9.5 -23.5 q0 -7 -2.5 -13 q-2.5 -6 -6.5 -10 l0 0 Z" /><glyph glyph-name="" unicode="&#xe921;" d="M1008 870 l-263 -263 l85 0 q22 0 37.5 -15.5 q15.5 -15.5 15.5 -37.5 q0 -23 -15.5 -38 q-15.5 -15 -37.5 -15 l-212 0 q-23 0 -38 15 q-15 15 -15 38 l0 212 q0 22 15 37.5 q15 15.5 38 15.5 q22 0 37.5 -15.5 q15.5 -15.5 15.5 -37.5 l0 -85 l263 263 q7 7 16.5 11.5 q9.5 4.5 20.5 4.5 q23 0 38 -15 q15 -15 15 -38 q0 -11 -4 -20.5 q-4 -9.5 -12 -16.5 l0 0 l0 0 ZM406 77 q-22 0 -37.5 15.5 q-15.5 15.5 -15.5 37.5 l0 85 l-263 -263 q-7 -7 -16.5 -11.5 q-9.5 -4.5 -20.5 -4.5 q-23 0 -38 15 q-15 15 -15 38 q0 11 4 20.5 q4 9.5 12 16.5 l263 263 l-85 0 q-22 0 -37.5 15.5 q-15.5 15.5 -15.5 37.5 q0 23 15.5 38 q15.5 15 37.5 15 l212 0 q23 0 38 -15 q15 -15 15 -38 l0 -212 q0 -22 -15 -37.5 q-15 -15.5 -38 -15.5 l0 0 l0 0 Z" /><glyph glyph-name="" unicode="&#xe922;" d="M1024 695 l0 0 q0 -22 -15 -37.5 q-15 -15.5 -38 -15.5 q-22 0 -37.5 15.5 q-15.5 15.5 -15.5 37.5 l0 0 l0 85 l-263 -263 q-7 -7 -16.5 -11.5 q-9.5 -4.5 -20.5 -4.5 q-23 0 -38 15 q-15 15 -15 38 q0 11 4 20.5 q4 9.5 12 16.5 l0 0 l263 263 l-85 0 q-22 0 -37.5 15.5 q-15.5 15.5 -15.5 37.5 q0 23 15.5 38 q15.5 15 37.5 15 l0 0 l212 0 q23 0 38 -15 q15 -15 15 -38 l0 0 l0 -212 l0 0 ZM443 305 l-263 -263 l85 0 q22 0 37.5 -15.5 q15.5 -15.5 15.5 -37.5 q0 -23 -15.5 -38 q-15.5 -15 -37.5 -15 l0 0 l-212 0 q-23 0 -38 15 q-15 15 -15 38 l0 0 l0 212 q0 22 15 37.5 q15 15.5 38 15.5 q22 0 37.5 -15.5 q15.5 -15.5 15.5 -37.5 l0 0 l0 -85 l263 263 q7 7 16.5 11.5 q9.5 4.5 20.5 4.5 q23 0 38 -15 q15 -15 15 -38 q0 -11 -4 -20.5 q-4 -9.5 -12 -16.5 l0 0 l0 0 l0 0 Z" /><glyph glyph-name="" unicode="&#xe923;" d="M512 -38 q101 0 189.5 38 q88.5 38 154.5 104 q66 66 104 154.5 q38 88.5 38 189.5 q0 101 -38 189.5 q-38 88.5 -104 154.5 q-66 66 -154.5 104 q-88.5 38 -189.5 38 q-101 0 -189.5 -38 q-88.5 -38 -154.5 -104 q-66 -66 -104 -154.5 q-38 -88.5 -38 -189.5 q0 -101 38 -189.5 q38 -88.5 104 -154.5 q66 -66 154.5 -104 q88.5 -38 189.5 -38 ZM617 420 q10 10 10 24 q0 14 -10 23 l-122 118 q-10 10 -24 10 q-14 0 -23 -10 q-10 -10 -9.5 -24 q0.5 -14 10.5 -23 q0 0 49 -47 q49 -47 49 -47 q0 0 -49.5 -49 q-49.5 -49 -49.5 -49 q-9 -9 -9.5 -23 q-0.5 -14 9.5 -24 q10 -10 23.5 -10 q13.5 0 23.5 10 l122 121 l0 0 ZM512 -64 l0 0 q-106 0 -199.5 40 q-93.5 40 -163 109.5 q-69.5 69.5 -109.5 163 q-40 93.5 -40 199.5 q0 106 40 199.5 q40 93.5 109.5 163 q69.5 69.5 163 109.5 q93.5 40 199.5 40 q106 0 199.5 -40 q93.5 -40 163 -109.5 q69.5 -69.5 109.5 -163 q40 -93.5 40 -199.5 q0 -106 -40 -199.5 q-40 -93.5 -109.5 -163 q-69.5 -69.5 -163 -109.5 q-93.5 -40 -199.5 -40 l0 0 l0 0 l0 0 l0 0 Z" /><glyph glyph-name="" unicode="&#xe924;" d="M816 -64 l-608 0 q-20 0 -34 14 q-14 14 -14 34 l0 608 q0 20 14 34 q14 14 34 14 l192 0 l0 -96 l-144 0 l0 -512 l512 0 l0 512 l-160 0 l0 96 l208 0 q20 0 34 -14 q14 -14 14 -34 l0 -608 q0 -20 -14 -34 q-14 -14 -34 -14 l0 0 ZM656 704 q-11 0 -20 4.5 q-9 4.5 -15 11.5 l0 0 l-61 67 l0 -291 q0 -20 -14 -34 q-14 -14 -34 -14 q-20 0 -34 14 q-14 14 -14 34 l0 0 l0 291 l-61 -67 q-6 -7 -15 -11.5 q-9 -4.5 -20 -4.5 q-20 0 -34 14 q-14 14 -14 34 q0 10 3.5 18 q3.5 8 9.5 14 l0 0 l144 160 q6 7 15 11.5 q9 4.5 20 4.5 q11 0 20 -4.5 q9 -4.5 15 -11.5 l0 0 l144 -160 q6 -6 9.5 -14 q3.5 -8 3.5 -18 q0 -20 -14 -34 q-14 -14 -34 -14 l0 0 Z" /><glyph glyph-name="" unicode="&#xe925;" d="M672 918 q-6 6 -12.5 9 q-6.5 3 -14.5 3 q-8 0 -15 -3 q-7 -3 -12 -9 q-6 -5 -9 -12 q-3 -7 -3 -15 l0 -153 l-15 0 q-108 0 -194.5 -15.5 q-86.5 -15.5 -153 -45.5 q-66.5 -30 -111.5 -75.5 q-45 -45.5 -70 -105.5 q-16 -41 -24 -91 q-8 -50 -8 -110 q0 -49 19.5 -117 q19.5 -68 57.5 -154 q1 -2 2.5 -5.5 q1.5 -3.5 3.5 -8.5 q3 -5 5 -9.5 q2 -4.5 3 -8.5 q2 -4 4 -7 q2 -3 4 -6 q4 -5 8 -7.5 q4 -2.5 9 -2.5 q5 0 8.5 1.5 q3.5 1.5 5.5 4.5 q3 3 4.5 6.5 q1.5 3.5 1.5 8.5 q0 2 -0.5 6 q-0.5 4 -1.5 10 q-1 5 -1 8.5 q0 3.5 0 5.5 q-2 20 -3 38.5 q-1 18.5 -1 35.5 q0 30 3 57 q3 27 8 51 q5 24 12.5 45 q7.5 21 16.5 39 q10 17 22 32 q12 15 27 28 q15 13 30.5 23.5 q15.5 10.5 33.5 18.5 q17 8 37 14.5 q20 6.5 43 10.5 q23 5 46.5 8.5 q23.5 3.5 46.5 4.5 q24 2 50.5 3 q26.5 1 55.5 1 l15 0 l0 -154 q0 -8 3 -14.5 q3 -6.5 9 -12.5 q5 -6 12 -8.5 q7 -2.5 15 -2.5 q8 0 14.5 2.5 q6.5 2.5 12.5 8.5 l310 308 q5 5 8 12 q3 7 3 15 q0 8 -3 14.5 q-3 6.5 -8 12.5 l-310 307 l0 0 Z" /><glyph glyph-name="" unicode="&#xe926;" d="M561 639 l309 0 l-358 321 l0 -273 q0 -20 14.5 -34 q14.5 -14 34.5 -14 l0 0 l0 0 ZM870 516 l0 72 l-309 0 q-41 0 -69.5 28.5 q-28.5 28.5 -28.5 68.5 l0 275 l-146 0 l-115 -1 q-20 0 -34 -14 q-14 -14 -14 -34 l0 -395 q0 0 104 0 q104 0 233.5 0 q129.5 0 244 0 q114.5 0 134.5 0 l0 0 ZM0 426 q0 18 12.5 30 q12.5 12 30.5 12 l938 0 q18 0 30.5 -12 q12.5 -12 12.5 -30 q0 -17 -12.5 -29.5 q-12.5 -12.5 -30.5 -12.5 l-938 0 q-18 0 -30.5 12.5 q-12.5 12.5 -12.5 29.5 l0 0 ZM154 338 l76 0 l0 -282 l-76 0 l0 282 l0 0 ZM313 338 l77 0 l0 -338 l-77 0 l0 338 l0 0 ZM474 338 l76 0 l0 -395 l-76 0 l0 395 l0 0 ZM634 338 l77 0 l0 -338 l-77 0 l0 338 l0 0 ZM794 338 l76 0 l0 -225 l-76 0 l0 225 l0 0 Z" /><glyph glyph-name="" unicode="&#xe927;" d="M879 -64 l-791 0 q-24 0 -40 17 q-16 17 -16 42 l0 906 q0 25 16 42 q16 17 40 17 l791 0 q24 0 40.5 -17 q16.5 -17 16.5 -42 l0 -906 q0 -25 -16.5 -42 q-16.5 -17 -40.5 -17 l0 0 ZM823 847 l-678 0 l0 -629 l678 0 l0 629 ZM424 403 l210 256 l136 -211 l0 -181 l-572 0 l180 181 l46 -45 l0 0 ZM333 614 q-37 0 -63.5 26.5 q-26.5 26.5 -26.5 63.5 q0 37 26.5 63.5 q26.5 26.5 63.5 26.5 q37 0 64 -26.5 q27 -26.5 27 -63.5 q0 -37 -27 -63.5 q-27 -26.5 -64 -26.5 l0 0 Z" /><glyph glyph-name="" unicode="&#xe928;" d="M683 267 l0 222 q0 12 8 20.5 q8 8.5 20 8.5 q12 0 20.5 -8.5 q8.5 -8.5 8.5 -20.5 l0 -213 q50 -3 87.5 -46.5 q37.5 -43.5 54.5 -115.5 q3 -12 -3.5 -22 q-6.5 -10 -17.5 -12 q-12 -3 -22 3 q-10 6 -12 18 q-20 82 -62.5 108 q-42.5 26 -98.5 -17 q-10 -8 -22.5 -6 q-12.5 2 -19.5 13 q-10 18 -41 45 q-31 27 -64 39 q-47 19 -88.5 -2.5 q-41.5 -21.5 -79.5 -95.5 q-7 -13 -21 -15 q-14 -2 -25 8 q-29 30 -53.5 37 q-24.5 7 -43.5 -4 q-19 -12 -34 -40 q-15 -28 -21 -66 q-1 -12 -10.5 -19 q-9.5 -7 -21.5 -5 q-12 2 -19 11.5 q-7 9.5 -5 20.5 q7 50 28.5 89 q21.5 39 53.5 58 q18 11 37.5 14 q19.5 3 39.5 -1 l0 147 q0 12 8.5 20 q8.5 8 19.5 8 q12 0 20.5 -8 q8.5 -8 8.5 -20 l0 -171 q0 0 0 -1 q0 -1 0 -1 q8 -6 16.5 -13.5 q8.5 -7.5 16.5 -15.5 l-46 -7 q22 42 46.5 71 q24.5 29 51.5 45 l0 223 q0 12 8.5 20 q8.5 8 20.5 8 q11 0 19.5 -8 q8.5 -8 8.5 -20 l0 -202 q21 2 42 -0.5 q21 -2.5 43 -11.5 q0 0 0 0 q0 0 0 0 l0 157 q0 12 8.5 20 q8.5 8 20.5 8 q12 0 20 -8 q8 -8 8 -20 l0 -171 q0 -4 -1 -7.5 q-1 -3.5 -3 -7.5 q27 -18 48.5 -39.5 q21.5 -21.5 31.5 -38.5 l-42 7 q13 11 26 18.5 q13 7.5 26 12.5 l0 0 ZM124 -36 q-12 0 -20.5 8.5 q-8.5 8.5 -8.5 20.5 q0 12 8.5 20 q8.5 8 20.5 8 l739 0 q12 0 20 -8 q8 -8 8 -20 q0 -12 -8 -20.5 q-8 -8.5 -20 -8.5 l-739 0 l0 0 ZM313 534 q0 -12 -8.5 -20.5 q-8.5 -8.5 -20.5 -8.5 q-11 0 -19.5 8.5 q-8.5 8.5 -8.5 20.5 l0 170 q0 12 8.5 20.5 q8.5 8.5 19.5 8.5 q12 0 20.5 -8.5 q8.5 -8.5 8.5 -20.5 l0 -170 ZM313 818 q0 -12 -8.5 -20 q-8.5 -8 -20.5 -8 q-11 0 -19.5 8 q-8.5 8 -8.5 20 l0 85 q0 12 8.5 20.5 q8.5 8.5 19.5 8.5 q12 0 20.5 -8.5 q8.5 -8.5 8.5 -20.5 l0 -85 ZM455 664 q0 -12 -8.5 -20.5 q-8.5 -8.5 -19.5 -8.5 q-12 0 -20.5 8.5 q-8.5 8.5 -8.5 20.5 l0 227 q0 12 8.5 20.5 q8.5 8.5 20.5 8.5 q11 0 19.5 -8.5 q8.5 -8.5 8.5 -20.5 l0 -227 ZM597 607 q0 -12 -8 -20.5 q-8 -8.5 -20 -8.5 q-12 0 -20.5 8.5 q-8.5 8.5 -8.5 20.5 l0 114 q0 11 8.5 19.5 q8.5 8.5 20.5 8.5 q12 0 20 -8.5 q8 -8.5 8 -19.5 l0 -114 ZM597 891 q0 -12 -8 -20 q-8 -8 -20 -8 q-12 0 -20.5 8 q-8.5 8 -8.5 20 l0 12 q0 12 8.5 20.5 q8.5 8.5 20.5 8.5 q12 0 20 -8.5 q8 -8.5 8 -20.5 l0 -12 ZM740 603 q0 -12 -8.5 -20 q-8.5 -8 -20.5 -8 q-12 0 -20 8 q-8 8 -8 20 l0 114 q0 12 8 20 q8 8 20 8 q12 0 20.5 -8 q8.5 -8 8.5 -20 l0 -114 ZM740 831 q0 -12 -8.5 -20.5 q-8.5 -8.5 -20.5 -8.5 q-12 0 -20 8.5 q-8 8.5 -8 20.5 l0 72 q0 12 8 20.5 q8 8.5 20 8.5 q12 0 20.5 -8.5 q8.5 -8.5 8.5 -20.5 l0 -72 Z" /><glyph glyph-name="" unicode="&#xe929;" d="M297 858 q-114 -19 -187.5 -83 q-73.5 -64 -98 -143.5 q-24.5 -79.5 4 -161.5 q28.5 -82 118.5 -137 q10 -6 9 -14 q-1 -8 -16 -50 l-17 -48 l122 62 l33 -7 q25 -6 54.5 -10 q29.5 -4 51.5 -4 l17 0 l-6 22 q-18 62 1.5 121.5 q19.5 59.5 65.5 106 q46 46.5 114 75 q68 28.5 148 28.5 l29 0 l-6 19 q-17 59 -60.5 105.5 q-43.5 46.5 -103 77 q-59.5 30.5 -130.5 42 q-71 11.5 -143 -0.5 l0 0 l0 0 ZM270 712 q24 -15 25 -42.5 q1 -27.5 -22 -41.5 q-37 -23 -68.5 6 q-31.5 29 -5.5 64 q11 16 33 20.5 q22 4.5 38 -6.5 l0 0 l0 0 ZM527 712 q40 -25 19.5 -65.5 q-20.5 -40.5 -64.5 -24.5 q-32 12 -35 44 q-3 32 27 47 q12 7 27.5 6.5 q15.5 -0.5 25.5 -7.5 l0 0 l0 0 ZM644 589 q-56 -10 -102.5 -34 q-46.5 -24 -79.5 -58.5 q-33 -34.5 -50.5 -77 q-17.5 -42.5 -15.5 -88.5 q3 -63 40 -113.5 q37 -50.5 94.5 -83 q57.5 -32.5 129.5 -42.5 q72 -10 146 9 l23 6 l49 -25 q20 -11 35 -17.5 q15 -6.5 15 -5.5 q1 1 -2.5 12.5 q-3.5 11.5 -8.5 27.5 q-12 34 -11.5 40 q0.5 6 16.5 17 q88 61 99 143.5 q11 82.5 -34.5 153.5 q-45.5 71 -136.5 113.5 q-91 42.5 -206 22.5 l0 0 l0 0 ZM638 455 q10 -6 14.5 -19.5 q4.5 -13.5 -0.5 -24.5 q-9 -25 -37.5 -26.5 q-28.5 -1.5 -38.5 22.5 q-12 27 12 45.5 q24 18.5 50 2.5 l0 0 l0 0 ZM848 451 q15 -14 13 -33.5 q-2 -19.5 -20 -28.5 q-28 -14 -49.5 6 q-21.5 20 -7.5 46 q9 17 29 20 q20 3 35 -10 l0 0 l0 0 Z" /><glyph glyph-name="" unicode="&#xe92a;" d="M686 848 q-24 -11 -29 -32 q-5 -21 13 -38 q9 -8 21.5 -10.5 q12.5 -2.5 47.5 -2.5 q50 0 84.5 -13 q34.5 -13 59.5 -42 q31 -34 38 -56.5 q7 -22.5 7 -84.5 q0 -55 2.5 -66 q2.5 -11 15.5 -19 q30 -17 49.5 3.5 q19.5 20.5 26.5 75.5 q5 36 -3 73.5 q-8 37.5 -26 72 q-18 34.5 -45 64 q-27 29.5 -60 48.5 q-43 24 -105.5 32.5 q-62.5 8.5 -96.5 -5.5 l0 0 l0 0 ZM356 726 q-56 -20 -111.5 -58.5 q-55.5 -38.5 -114.5 -99.5 q-69 -72 -101.5 -140.5 q-32.5 -68.5 -28.5 -130 q4 -61.5 44.5 -112.5 q40.5 -51 116.5 -87 q80 -38 169.5 -51 q89.5 -13 177.5 -3 q88 10 167 43 q79 33 137 87 q44 41 63.5 84.5 q19.5 43.5 15 83 q-4.5 39.5 -31.5 71.5 q-27 32 -77 50 q-17 5 -23.5 10 q-6.5 5 -3.5 10 q9 22 11.5 45 q2.5 23 -2.5 37 q-16 47 -70.5 57.5 q-54.5 10.5 -138.5 -17.5 l-45 -15 l4 43 q3 39 -6 61.5 q-9 22.5 -33 34.5 q-19 10 -53 9 q-34 -1 -66 -12 l0 0 l0 0 ZM543 472 q75 -20 118 -61.5 q43 -41.5 43 -94.5 q0 -58 -50 -107.5 q-50 -49.5 -137 -77.5 q-46 -15 -118.5 -17.5 q-72.5 -2.5 -114.5 9.5 q-80 22 -123.5 63.5 q-43.5 41.5 -43.5 97.5 q0 30 14 57.5 q14 27.5 44 54.5 q27 25 52.5 40 q25.5 15 66.5 28 q62 20 126 22.5 q64 2.5 123 -14.5 l0 0 l0 0 ZM331 409 q-51 -23 -77.5 -58 q-26.5 -35 -26.5 -79 q0 -40 19 -68.5 q19 -28.5 58 -49.5 q31 -16 79.5 -15 q48.5 1 82.5 18 q44 23 70.5 61.5 q26.5 38.5 26.5 78.5 q-1 34 -27 68.5 q-26 34.5 -62 48.5 q-29 12 -71 10.5 q-42 -1.5 -72 -15.5 l0 0 l0 0 ZM380 286 q4 -4 6 -11 q2 -7 2 -15 q0 -24 -31 -39 q-31 -15 -48 2 q-10 9 -8 28 q2 19 13 29 q11 11 34 13 q23 2 32 -7 l0 0 l0 0 ZM698 713 q-24 -22 -11 -44 q13 -22 50 -22 q31 0 46 -16.5 q15 -16.5 15 -51.5 q0 -22 2.5 -31 q2.5 -9 11.5 -15 q28 -18 47 -0.5 q19 17.5 19 61.5 q0 54 -35.5 90.5 q-35.5 36.5 -91.5 40.5 q-25 1 -34.5 -1 q-9.5 -2 -18.5 -11 l0 0 Z" /><glyph glyph-name="" unicode="&#xe92b;" d="M512 -52 q104 0 195 39 q91 39 159 107 q68 68 107 159 q39 91 39 195 q0 104 -39 195 q-39 91 -107 159 q-68 68 -159 107 q-91 39 -195 39 q-104 0 -195 -39 q-91 -39 -159 -107 q-68 -68 -107 -159 q-39 -91 -39 -195 q0 -104 39 -195 q39 -91 107 -159 q68 -68 159 -107 q91 -39 195 -39 l0 0 l0 0 l0 0 l0 0 l0 0 l0 0 l0 0 l0 0 l0 0 l0 0 ZM512 17 q-89 0 -167.5 34 q-78.5 34 -137 92.5 q-58.5 58.5 -92.5 137 q-34 78.5 -34 167.5 q0 89 34 167.5 q34 78.5 92.5 137 q58.5 58.5 137 92.5 q78.5 34 167.5 34 q89 0 167.5 -34 q78.5 -34 137 -92.5 q58.5 -58.5 92.5 -137 q34 -78.5 34 -167.5 q0 -89 -34 -167.5 q-34 -78.5 -92.5 -137 q-58.5 -58.5 -137 -92.5 q-78.5 -34 -167.5 -34 l0 0 l0 0 l0 0 l0 0 l0 0 l0 0 l0 0 l0 0 l0 0 l0 0 ZM61 415 q2 1 4.5 3 q2.5 2 5.5 5 q6 4 12.5 8.5 q6.5 4.5 13.5 8.5 q8 5 15.5 9 q7.5 4 14.5 7 q11 5 19.5 7 q8.5 2 12.5 0 q1 0 4.5 -10.5 q3.5 -10.5 8.5 -33.5 q0 -1 0 -1.5 q0 -0.5 1 -1.5 q4 -23 7.5 -34.5 q3.5 -11.5 9.5 -20.5 q11 -18 28 -22 q17 -4 36 8 q22 13 33 41 q11 28 21 84 q1 3 1.5 7 q0.5 4 1.5 10 q5 27 8.5 42 q3.5 15 7.5 25 q3 8 4 9.5 q1 1.5 1 1.5 q6 -1 15 -29 q9 -28 21 -88 q0 -1 0 -1.5 q0 -0.5 1 -1.5 q18 -97 35 -130.5 q17 -33.5 56 -27.5 q33 6 47.5 42 q14.5 36 33.5 134 q1 1 1 1.5 q0 0.5 0 2.5 q9 46 15 70 q6 24 12 42 q7 18 12 24 q5 6 8 6 q15 -4 32.5 -48.5 q17.5 -44.5 36.5 -131.5 q1 -1 8.5 -34.5 q7.5 -33.5 10.5 -46.5 q14 -60 26 -90 q12 -30 31 -40 q19 -10 35 -1.5 q16 8.5 26 29.5 q7 13 12.5 30 q5.5 17 11.5 44 q2 6 5.5 21 q3.5 15 4.5 20 q12 47 22 73.5 q10 26.5 20 35.5 q4 3 6.5 4.5 q2.5 1.5 5.5 1.5 q9 2 22 -5.5 q13 -7.5 27 -23.5 q9 -10 15.5 -19 q6.5 -9 9.5 -15 q5 -8 14.5 -10.5 q9.5 -2.5 17.5 2.5 q9 5 11 14.5 q2 9.5 -3 17.5 q-1 2 -3 5.5 q-2 3.5 -5 7.5 q-5 7 -10.5 14 q-5.5 7 -11.5 14 q-22 24 -45 36.5 q-23 12.5 -48 7.5 q-9 -2 -17 -6 q-8 -4 -16 -11 q-19 -16 -31 -46.5 q-12 -30.5 -26 -86.5 q-1 -5 -5 -20 q-4 -15 -5 -20 q-6 -25 -11 -40.5 q-5 -15.5 -9 -24.5 q-3 -6 -1.5 -6 q1.5 0 3.5 -2 q-5 3 -14 28.5 q-9 25.5 -20 71.5 q-3 12 -10.5 46 q-7.5 34 -7.5 35 q-25 106 -46.5 155.5 q-21.5 49.5 -57.5 58.5 q-26 6 -44 -10 q-18 -16 -30 -49 q-8 -20 -14 -45.5 q-6 -25.5 -16 -73.5 q0 -2 0 -2.5 q0 -0.5 0 -1.5 q-14 -72 -24.5 -104.5 q-10.5 -32.5 -19.5 -34.5 q-6 -1 -15.5 27 q-9.5 28 -22.5 94 q0 1 0 1.5 q0 0.5 0 1.5 q-17 84 -29.5 115 q-12.5 31 -41.5 38 q-21 6 -36 -5 q-15 -11 -23 -34 q-6 -13 -10 -29.5 q-4 -16.5 -9 -46.5 q-1 -6 -1.5 -10 q-0.5 -4 -1.5 -7 q-8 -43 -15.5 -65.5 q-7.5 -22.5 -16.5 -28.5 q-2 -1 -0.5 -1.5 q1.5 -0.5 0.5 0.5 q-3 4 -5.5 13 q-2.5 9 -6.5 27 q0 2 0 2.5 q0 0.5 0 1.5 q-9 39 -17.5 56 q-8.5 17 -28.5 23 q-14 4 -30 1.5 q-16 -2.5 -34 -10.5 q-8 -4 -17 -8.5 q-9 -4.5 -18 -10.5 q-8 -5 -15.5 -10 q-7.5 -5 -13.5 -10 q-4 -3 -7 -5 q-3 -2 -5 -4 q-8 -6 -9 -15.5 q-1 -9.5 6 -16.5 q6 -8 15.5 -9 q9.5 -1 16.5 5 l0 0 l0 0 Z" /><glyph glyph-name="" unicode="&#xe92c;" d="M524 706 q0 46 33.5 78.5 q33.5 32.5 79.5 32.5 q48 0 80.5 -32.5 q32.5 -32.5 32.5 -78.5 q0 -46 -33 -79 q-33 -33 -80 -33 l-637 0 l0 -68 l637 0 q75 0 128.5 53 q53.5 53 53.5 127 q0 75 -53 127.5 q-53 52.5 -129 52.5 q-75 0 -128 -53 q-53 -53 -53 -127 l68 0 ZM665 297 q0 -67 47.5 -114.5 q47.5 -47.5 114.5 -47.5 q67 0 115 47.5 q48 47.5 48 114.5 q0 67 -47.5 115 q-47.5 48 -115.5 48 l-827 0 l0 -68 l827 0 q40 0 67.5 -28 q27.5 -28 27.5 -67 q0 -38 -28 -66 q-28 -28 -67 -28 q-39 0 -66.5 27.5 q-27.5 27.5 -27.5 66.5 l-68 0 l0 0 ZM322 160 q0 -67 47 -114.5 q47 -47.5 114 -47.5 q67 0 114 47 q47 47 47 115 q0 67 -47 115 q-47 48 -114 48 l-483 0 l0 -68 l483 0 q38 0 65.5 -28 q27.5 -28 27.5 -67 q0 -39 -27 -66.5 q-27 -27.5 -66 -27.5 q-38 0 -65.5 27.5 q-27.5 27.5 -27.5 66.5 l-68 0 l0 0 Z" /><glyph glyph-name="" unicode="&#xe92d;" d="M512 -38 l0 0 q101 0 189.5 38 q88.5 38 154.5 104 q66 66 104 154.5 q38 88.5 38 189.5 q0 101 -38 189.5 q-38 88.5 -104 154.5 q-66 66 -154.5 104 q-88.5 38 -189.5 38 q-101 0 -189.5 -38 q-88.5 -38 -154.5 -104 q-66 -66 -104 -154.5 q-38 -88.5 -38 -189.5 q0 -101 38 -189.5 q38 -88.5 104 -154.5 q66 -66 154.5 -104 q88.5 -38 189.5 -38 l0 0 ZM512 -64 q-106 0 -199.5 40 q-93.5 40 -163 109.5 q-69.5 69.5 -109.5 163 q-40 93.5 -40 199.5 q0 106 40 199.5 q40 93.5 109.5 163 q69.5 69.5 163 109.5 q93.5 40 199.5 40 q106 0 199.5 -40 q93.5 -40 163 -109.5 q69.5 -69.5 109.5 -163 q40 -93.5 40 -199.5 q0 -106 -40 -199.5 q-40 -93.5 -109.5 -163 q-69.5 -69.5 -163 -109.5 q-93.5 -40 -199.5 -40 ZM682 577 l-116 -116 l116 -117 q4 -3 6.5 -8.5 q2.5 -5.5 2.5 -11.5 q0 -13 -8.5 -21.5 q-8.5 -8.5 -20.5 -8.5 q-6 0 -11.5 2.5 q-5.5 2.5 -9.5 6.5 l-116 117 l-117 -117 q-3 -3 -8.5 -6 q-5.5 -3 -11.5 -3 q-13 0 -21.5 8.5 q-8.5 8.5 -8.5 21.5 q0 6 2.5 11.5 q2.5 5.5 6.5 8.5 l117 117 l-117 116 q-3 4 -6 9.5 q-3 5.5 -3 11.5 q0 12 8.5 20.5 q8.5 8.5 21.5 8.5 q6 0 11.5 -2 q5.5 -2 8.5 -7 l117 -116 l116 116 q4 4 9.5 6.5 q5.5 2.5 11.5 2.5 q12 0 20.5 -8.5 q8.5 -8.5 8.5 -20.5 q0 -6 -2 -11.5 q-2 -5.5 -7 -9.5 Z" /></font>
</defs>
</svg>
